<svg width="27" height="27" viewBox="0 0 27 27" fill="inherit" xmlns="http://www.w3.org/2000/svg">
<g clip-path="url(#clip0)">
<path d="M13.5044 6.56763C9.67603 6.56763 6.57666 9.67038 6.57666 13.4954C6.57666 17.3238 9.67941 20.4231 13.5044 20.4231C17.3328 20.4231 20.4322 17.3204 20.4322 13.4954C20.4322 9.667 17.3294 6.56763 13.5044 6.56763V6.56763ZM13.5044 17.992C11.0193 17.992 9.00778 15.9794 9.00778 13.4954C9.00778 11.0114 11.0204 8.99875 13.5044 8.99875C15.9884 8.99875 18.001 11.0114 18.001 13.4954C18.0022 15.9794 15.9895 17.992 13.5044 17.992V17.992Z" fill="inherit"/>
<path d="M19.0663 0.086519C16.5823 -0.029356 10.4296 -0.023731 7.94339 0.086519C5.75864 0.188894 3.83152 0.716519 2.27789 2.27014C-0.318608 4.86664 0.0132674 8.3654 0.0132674 13.4965C0.0132674 18.748 -0.279233 22.1658 2.27789 24.7229C4.88452 27.3284 8.43389 26.9875 13.5043 26.9875C18.7063 26.9875 20.5018 26.9909 22.3411 26.2788C24.842 25.3079 26.7298 23.0725 26.9143 19.0574C27.0313 16.5723 27.0245 10.4208 26.9143 7.93452C26.6915 3.1949 24.1479 0.320519 19.0663 0.086519V0.086519ZM22.9981 23.005C21.296 24.7071 18.9346 24.5553 13.4716 24.5553C7.84664 24.5553 5.59102 24.6385 3.94514 22.9881C2.04952 21.1015 2.39264 18.0719 2.39264 13.4785C2.39264 7.2629 1.75477 2.78652 7.99289 2.46702C9.42614 2.41639 9.84802 2.39952 13.4559 2.39952L13.5065 2.43327C19.5016 2.43327 24.2053 1.80552 24.4876 8.04252C24.5518 9.46565 24.5664 9.89315 24.5664 13.4954C24.5653 19.0551 24.671 21.3243 22.9981 23.005V23.005Z" fill="inherit"/>
<path d="M20.7068 7.91329C21.6008 7.91329 22.3256 7.18849 22.3256 6.29441C22.3256 5.40033 21.6008 4.67554 20.7068 4.67554C19.8127 4.67554 19.0879 5.40033 19.0879 6.29441C19.0879 7.18849 19.8127 7.91329 20.7068 7.91329Z" fill="inherit"/>
</g>
<defs>
<clipPath id="clip0">
<rect width="27" height="27" fill="inherit"/>
</clipPath>
</defs>
</svg>
