<svg width="28" height="28" viewBox="0 0 28 28" fill="inherit" xmlns="http://www.w3.org/2000/svg">
<g clip-path="url(#clip0)">
<path d="M23.2342 15.1993C22.7815 14.6276 22.911 14.3733 23.2342 13.8623C23.24 13.8564 26.9768 8.69275 27.3618 6.94159L27.3642 6.94042C27.5555 6.30225 27.3642 5.83325 26.439 5.83325H23.3777C22.5983 5.83325 22.239 6.23575 22.0465 6.68609C22.0465 6.68609 20.4878 10.4171 18.2828 12.8356C17.5712 13.5344 17.2422 13.7584 16.8537 13.7584C16.6623 13.7584 16.3648 13.5344 16.3648 12.8963V6.94042C16.3648 6.17509 16.1467 5.83325 15.5015 5.83325H10.6878C10.199 5.83325 9.9085 6.19025 9.9085 6.52275C9.9085 7.24842 11.011 7.41525 11.1253 9.45692V13.8868C11.1253 14.8574 10.9492 15.0359 10.5583 15.0359C9.51766 15.0359 6.99183 11.2898 5.495 7.00225C5.19283 6.17042 4.89767 5.83442 4.1125 5.83442H1.05C0.176167 5.83442 0 6.23692 0 6.68725C0 7.48292 1.04067 11.4391 4.83933 16.6658C7.371 20.2334 10.9363 22.1666 14.1797 22.1666C16.1292 22.1666 16.3672 21.7373 16.3672 20.9988C16.3672 17.5898 16.191 17.2678 17.1675 17.2678C17.6202 17.2678 18.3995 17.4918 20.2195 19.2126C22.2997 21.2531 22.6415 22.1666 23.8058 22.1666H26.8672C27.7398 22.1666 28.182 21.7373 27.9277 20.8903C27.3455 19.1088 23.4115 15.4443 23.2342 15.1993V15.1993Z" fill="inherit"/>
</g>
<defs>
<clipPath id="clip0">
<rect width="28" height="28" fill="inherit"/>
</clipPath>
</defs>
</svg>
