<svg width="27" height="27" viewBox="0 0 27 27" fill="none" xmlns="http://www.w3.org/2000/svg">
<g clip-path="url(#clip0)">
<path d="M26.4025 6.67014L26.4362 6.89064C26.11 5.73302 25.2291 4.83977 24.1097 4.51464L24.0861 4.50902C21.9812 3.93752 13.5111 3.93752 13.5111 3.93752C13.5111 3.93752 5.06234 3.92627 2.93609 4.50902C1.79534 4.83977 0.913343 5.73302 0.592718 6.86702L0.587093 6.89064C-0.199282 10.998 -0.204907 15.9334 0.621968 20.331L0.587093 20.1083C0.913343 21.2659 1.79422 22.1591 2.91359 22.4843L2.93722 22.4899C5.03984 23.0625 13.5122 23.0625 13.5122 23.0625C13.5122 23.0625 21.9598 23.0625 24.0872 22.4899C25.2291 22.1591 26.1111 21.2659 26.4317 20.1319L26.4373 20.1083C26.7951 18.198 26.9998 15.9998 26.9998 13.7543C26.9998 13.6721 26.9998 13.5889 26.9987 13.5056C26.9998 13.4291 26.9998 13.338 26.9998 13.2469C26.9998 11.0003 26.7951 8.80202 26.4025 6.67014V6.67014ZM10.8088 17.6074V9.40277L17.8581 13.5113L10.8088 17.6074Z" fill="inherit"/>
</g>
<defs>
<clipPath id="clip0">
<rect width="27" height="27" fill="inherit"/>
</clipPath>
</defs>
</svg>
