<svg width="297" height="63" viewBox="0 0 297 63" fill="none" xmlns="http://www.w3.org/2000/svg">
<path d="M82.3359 50V31.4395H86.2715V50H82.3359ZM103.199 44.8457C103.199 46.5215 102.594 47.8418 101.384 48.8066C100.182 49.7715 98.5064 50.2539 96.3566 50.2539C94.3762 50.2539 92.6242 49.8815 91.1008 49.1367V45.4805C92.3534 46.0391 93.4113 46.4326 94.2746 46.6611C95.1464 46.8896 95.9419 47.0039 96.6613 47.0039C97.5246 47.0039 98.1848 46.8389 98.6418 46.5088C99.1073 46.1787 99.34 45.6878 99.34 45.0361C99.34 44.6722 99.2385 44.3506 99.0354 44.0713C98.8322 43.7835 98.5318 43.5085 98.134 43.2461C97.7447 42.9837 96.9449 42.5648 95.7346 41.9893C94.6005 41.4561 93.7499 40.944 93.1828 40.4531C92.6158 39.9622 92.163 39.391 91.8244 38.7393C91.4859 38.0876 91.3166 37.3258 91.3166 36.4541C91.3166 34.8122 91.871 33.5215 92.9797 32.582C94.0969 31.6426 95.6372 31.1729 97.6008 31.1729C98.5656 31.1729 99.4839 31.2871 100.356 31.5156C101.236 31.7441 102.154 32.0658 103.111 32.4805L101.841 35.54C100.851 35.1338 100.03 34.8503 99.3781 34.6895C98.7349 34.5286 98.1001 34.4482 97.4738 34.4482C96.729 34.4482 96.1577 34.6217 95.76 34.9688C95.3622 35.3158 95.1633 35.7686 95.1633 36.3271C95.1633 36.6742 95.2437 36.9788 95.4045 37.2412C95.5653 37.4951 95.8192 37.7448 96.1662 37.9902C96.5217 38.2272 97.3553 38.6589 98.6672 39.2852C100.402 40.1146 101.591 40.9482 102.235 41.7861C102.878 42.6156 103.199 43.6354 103.199 44.8457ZM107.864 50V31.4395H111.799V46.75H119.328V50H107.864ZM135.227 50L133.881 45.582H127.115L125.769 50H121.529L128.08 31.3633H132.891L139.467 50H135.227ZM132.942 42.2812C131.698 38.278 130.995 36.014 130.835 35.4893C130.682 34.9645 130.572 34.5498 130.504 34.2451C130.225 35.3285 129.425 38.0072 128.105 42.2812H132.942ZM159.582 50H154.58L146.506 35.959H146.391C146.552 38.4388 146.633 40.2077 146.633 41.2656V50H143.116V31.4395H148.08L156.141 45.3408H156.23C156.103 42.9287 156.04 41.2233 156.04 40.2246V31.4395H159.582V50ZM180.966 40.542C180.966 43.5973 180.094 45.9375 178.351 47.5625C176.616 49.1875 174.106 50 170.822 50H165.566V31.4395H171.394C174.424 31.4395 176.776 32.2393 178.452 33.8389C180.128 35.4385 180.966 37.6729 180.966 40.542ZM176.878 40.6436C176.878 36.6572 175.118 34.6641 171.597 34.6641H169.502V46.75H171.19C174.982 46.75 176.878 44.7145 176.878 40.6436Z" fill="#323232"/>
<path d="M197.069 44.8457C197.069 46.5215 196.463 47.8418 195.253 48.8066C194.051 49.7715 192.376 50.2539 190.226 50.2539C188.245 50.2539 186.493 49.8815 184.97 49.1367V45.4805C186.223 46.0391 187.28 46.4326 188.144 46.6611C189.015 46.8896 189.811 47.0039 190.53 47.0039C191.394 47.0039 192.054 46.8389 192.511 46.5088C192.976 46.1787 193.209 45.6878 193.209 45.0361C193.209 44.6722 193.108 44.3506 192.904 44.0713C192.701 43.7835 192.401 43.5085 192.003 43.2461C191.614 42.9837 190.814 42.5648 189.604 41.9893C188.47 41.4561 187.619 40.944 187.052 40.4531C186.485 39.9622 186.032 39.391 185.694 38.7393C185.355 38.0876 185.186 37.3258 185.186 36.4541C185.186 34.8122 185.74 33.5215 186.849 32.582C187.966 31.6426 189.506 31.1729 191.47 31.1729C192.435 31.1729 193.353 31.2871 194.225 31.5156C195.105 31.7441 196.023 32.0658 196.98 32.4805L195.71 35.54C194.72 35.1338 193.899 34.8503 193.247 34.6895C192.604 34.5286 191.969 34.4482 191.343 34.4482C190.598 34.4482 190.027 34.6217 189.629 34.9688C189.231 35.3158 189.032 35.7686 189.032 36.3271C189.032 36.6742 189.113 36.9788 189.274 37.2412C189.434 37.4951 189.688 37.7448 190.035 37.9902C190.391 38.2272 191.224 38.6589 192.536 39.2852C194.271 40.1146 195.46 40.9482 196.104 41.7861C196.747 42.6156 197.069 43.6354 197.069 44.8457ZM205.668 40.1738H206.963C208.174 40.1738 209.079 39.9368 209.68 39.4629C210.281 38.9805 210.581 38.2822 210.581 37.3682C210.581 36.4456 210.328 35.7643 209.82 35.3242C209.32 34.8841 208.533 34.6641 207.458 34.6641H205.668V40.1738ZM214.555 37.2285C214.555 39.2259 213.929 40.7536 212.676 41.8115C211.432 42.8695 209.659 43.3984 207.357 43.3984H205.668V50H201.733V31.4395H207.662C209.913 31.4395 211.622 31.9261 212.79 32.8994C213.967 33.8643 214.555 35.3073 214.555 37.2285ZM219.359 50V31.4395H223.295V50H219.359ZM233.202 39.6787H234.471C235.716 39.6787 236.634 39.4714 237.226 39.0566C237.819 38.6419 238.115 37.9902 238.115 37.1016C238.115 36.2214 237.81 35.5951 237.201 35.2227C236.6 34.8503 235.665 34.6641 234.395 34.6641H233.202V39.6787ZM233.202 42.8779V50H229.266V31.4395H234.675C237.197 31.4395 239.063 31.9007 240.273 32.8232C241.484 33.7373 242.089 35.1296 242.089 37C242.089 38.0918 241.788 39.0651 241.187 39.9199C240.586 40.7663 239.736 41.4307 238.636 41.9131C241.429 46.0856 243.248 48.7812 244.095 50H239.727L235.297 42.8779H233.202ZM247.73 50V31.4395H251.666V50H247.73ZM264.798 50H260.863V34.7148H255.822V31.4395H269.838V34.7148H264.798V50Z" fill="#00A5DD"/>
<path fill-rule="evenodd" clip-rule="evenodd" d="M35 0L63 14.6573V63H7V14.6573L35 0Z" fill="#00A6DE"/>
<path fill-rule="evenodd" clip-rule="evenodd" d="M21.4788 23.1111C20.2975 23.0898 19.1705 22.6061 18.3351 21.7617C17.4997 20.9173 17.0211 19.7781 17.0001 18.5841C16.9968 17.9859 17.1133 17.3931 17.3427 16.8416C17.572 16.2901 17.9094 15.7912 18.3345 15.3749C18.7362 14.9388 19.2231 14.5914 19.7642 14.3548C20.3054 14.1183 20.8892 13.9976 21.4788 14.0003C22.0781 13.993 22.6724 14.1114 23.2241 14.348C23.7759 14.5846 24.2731 14.9343 24.6844 15.3749C25.1079 15.7922 25.4438 16.2914 25.6722 16.8428C25.9006 17.3941 26.0167 17.9864 26.0137 18.5841C26.0179 19.1774 25.9022 19.7654 25.6736 20.3119C25.445 20.8584 25.1084 21.352 24.6844 21.7623C24.2696 22.1965 23.7711 22.5402 23.2198 22.7722C22.6684 23.0042 22.0759 23.1195 21.4788 23.1111ZM25.165 55.1925H17.8539V26.5476H25.165V55.1925V55.1925ZM38.3914 34.6817C38.3914 35.9082 40.111 36.9589 43.5501 37.834C44.6655 38.0751 45.7637 38.3911 46.8375 38.7797C47.8855 39.1781 48.8841 39.6984 49.8131 40.33C50.8035 41.0001 51.6064 41.9166 52.1445 42.9914C52.7322 44.1827 53.0252 45.5002 52.9983 46.8311C52.9983 49.7698 51.9025 52.0419 49.7109 53.6474C47.5192 55.2528 44.8163 56.0366 41.6022 55.9987C35.784 55.9987 31.8166 53.73 29.6999 49.1927L36.0498 45.5753C36.919 48.0558 38.7698 49.2961 41.6022 49.2961C44.2096 49.2961 45.5134 48.4762 45.5134 46.8363C45.5134 45.6098 43.7938 44.559 40.3547 43.6839C39.0714 43.3377 37.9773 42.9966 37.0673 42.6504C36.0385 42.2453 35.0521 41.7381 34.1224 41.1362C33.105 40.5087 32.2733 39.6163 31.7143 38.5523C31.1429 37.4081 30.8601 36.1388 30.8912 34.8574C30.8912 32.0323 31.9137 29.8154 33.9588 28.2065C36.0038 26.5976 38.5738 25.7776 41.6686 25.7466C43.8633 25.7097 46.0305 26.2436 47.9623 27.297C49.8434 28.3406 51.3956 29.8988 52.441 31.7929L46.1934 35.2398C45.8288 34.339 45.1969 33.5746 44.3848 33.0517C43.5727 32.5288 42.6202 32.2732 41.6584 32.32C40.8261 32.2868 40.0042 32.5162 39.3066 32.9763C39.0224 33.1576 38.789 33.4097 38.6288 33.7083C38.4685 34.0069 38.3868 34.342 38.3914 34.6817V34.6817Z" fill="white"/>
</svg>
