<svg width="50" height="50" viewBox="0 0 50 50" fill="none" xmlns="http://www.w3.org/2000/svg">
<path d="M47.5 5.83325H2.5C1.11934 5.83325 0 6.95249 0 8.33325V41.6665C0 43.0472 1.11924 44.1665 2.5 44.1665H47.5C48.8807 44.1665 50 43.0473 50 41.6665V8.33325C50 6.95259 48.8808 5.83325 47.5 5.83325ZM48.3333 41.6666C48.3333 42.1269 47.9603 42.5 47.5 42.5H2.5C2.03975 42.5 1.6667 42.1269 1.6667 41.6666V8.33325C1.6667 7.873 2.03975 7.49995 2.5 7.49995H47.5C47.9603 7.49995 48.3333 7.873 48.3333 8.33325V41.6666Z" fill="black"/>
<path d="M45.9061 9.16972C45.6859 9.15048 45.467 9.21953 45.2978 9.36171L26.0727 25.5116C25.4526 26.0328 24.5477 26.0328 23.9276 25.5116L4.70275 9.36162C4.47472 9.17021 4.16183 9.11494 3.88204 9.21669C3.60226 9.31845 3.39796 9.56181 3.3462 9.85507C3.29445 10.1483 3.40304 10.4469 3.63107 10.6383L22.8561 26.7874C24.0951 27.8307 25.9053 27.8307 27.1444 26.7874L46.3694 10.6384C46.5387 10.4963 46.6445 10.2928 46.6638 10.0726C46.683 9.85234 46.614 9.63349 46.4718 9.46425C46.3298 9.29482 46.1263 9.18896 45.9061 9.16972Z" fill="#4682B4"/>
<path d="M16.0277 26.6729C15.7327 26.607 15.4253 26.7061 15.2241 26.9316L3.55742 39.4316C3.34628 39.6479 3.26874 39.9615 3.35488 40.2512C3.44101 40.5409 3.67724 40.7612 3.97216 40.8271C4.26718 40.8929 4.5746 40.7939 4.77578 40.5683L16.4425 28.0683C16.6536 27.8521 16.7311 27.5384 16.645 27.2487C16.5589 26.9591 16.3227 26.7387 16.0277 26.6729Z" fill="black"/>
<path d="M34.7758 26.9316C34.5747 26.7061 34.2672 26.607 33.9722 26.6729C33.6771 26.7387 33.441 26.9591 33.3549 27.2487C33.2687 27.5385 33.3463 27.8521 33.5574 28.0683L45.2241 40.5683C45.5405 40.8923 46.0577 40.9044 46.3889 40.5954C46.72 40.2864 46.7438 39.7696 46.4425 39.4316L34.7758 26.9316Z" fill="black"/>
</svg>
