<svg width="50" height="50" viewBox="0 0 50 50" fill="none" xmlns="http://www.w3.org/2000/svg">
<path d="M25.1629 10.9575C21.6391 10.9575 18.771 13.8256 18.771 17.3494C18.771 20.8731 21.6391 23.7413 25.1629 23.7413C28.6866 23.7413 31.5547 20.8731 31.5547 17.3494C31.5547 13.8256 28.6866 10.9575 25.1629 10.9575ZM25.1629 21.915C22.6454 21.915 20.5972 19.8669 20.5972 17.3494C20.5972 14.8319 22.6454 12.7838 25.1629 12.7838C27.6804 12.7838 29.7285 14.8319 29.7285 17.3494C29.7285 19.8669 27.6804 21.915 25.1629 21.915Z" fill="#4682B4"/>
<path d="M37.3831 5.12902C34.0758 1.82169 29.6782 0 25.0012 0C20.3232 0 15.9265 1.82169 12.6192 5.12902C6.4985 11.2488 5.73787 22.7633 10.9719 29.7396L25.0012 50L39.0094 29.7679C44.2645 22.7633 43.5038 11.2488 37.3831 5.12902ZM37.5283 28.7004L25.0012 46.7913L12.4539 28.6721C7.70657 22.3423 8.38684 11.9437 13.9113 6.42018C16.8734 3.45801 20.8117 1.82625 25.0012 1.82625C29.1906 1.82625 33.1289 3.45801 36.092 6.42018C41.6164 11.9437 42.2967 22.3424 37.5283 28.7004Z" fill="#323232"/>
</svg>
