<svg width="35" height="35" viewBox="0 0 35 35" fill="none" xmlns="http://www.w3.org/2000/svg">
<g clip-path="url(#clip0)">
<path d="M15.3125 5.08094C15.7152 5.08094 16.0417 4.75445 16.0417 4.35175C16.0417 3.94904 15.7152 3.62256 15.3125 3.62256C6.85969 3.6322 0.00967197 10.4822 3.32989e-05 18.9351V23.3101C-0.0126132 27.7527 3.57858 31.3645 8.02119 31.3772C12.4639 31.3898 16.0756 27.7986 16.0883 23.356C16.1009 18.9133 12.5097 15.3016 8.06712 15.2889C5.4439 15.2815 2.98173 16.5535 1.47003 18.6974C1.60504 11.1459 7.75971 5.09167 15.3125 5.08094Z" fill="#2196F3"/>
<path d="M26.9791 15.2892C24.3709 15.2913 21.927 16.5628 20.4283 18.6974C20.5633 11.1458 26.718 5.0916 34.2707 5.08094C34.6734 5.08094 34.9999 4.75445 34.9999 4.35175C34.9999 3.94904 34.6734 3.62256 34.2707 3.62256C25.8179 3.6322 18.9679 10.4822 18.9583 18.9351V23.3101C18.9583 27.7398 22.5493 31.3309 26.9791 31.3309C31.4088 31.3309 34.9999 27.7398 34.9999 23.3101C34.9999 18.8803 31.4089 15.2892 26.9791 15.2892Z" fill="#2196F3"/>
</g>
<defs>
<clipPath id="clip0">
<rect width="35" height="35" fill="white"/>
</clipPath>
</defs>
</svg>
