<svg width="50" height="50" viewBox="0 0 50 50" fill="none" xmlns="http://www.w3.org/2000/svg">
<g clip-path="url(#clip0)">
<path d="M37.8906 0H12.1094C11.5139 0.00072361 10.943 0.237597 10.5219 0.658665C10.1009 1.07973 9.864 1.65061 9.86328 2.24609V47.7539C9.864 48.3494 10.1009 48.9203 10.5219 49.3413C10.943 49.7624 11.5139 49.9993 12.1094 50H37.8906C38.4861 49.9993 39.057 49.7624 39.4781 49.3413C39.8991 48.9203 40.136 48.3494 40.1367 47.7539V2.24609C40.136 1.65061 39.8991 1.07973 39.4781 0.658665C39.057 0.237597 38.4861 0.00072361 37.8906 0V0ZM11.2305 2.24609C11.2307 2.01306 11.3233 1.78962 11.4881 1.62484C11.6529 1.46006 11.8763 1.36739 12.1094 1.36719H37.8906C38.1237 1.36739 38.3471 1.46006 38.5119 1.62484C38.6767 1.78962 38.7693 2.01306 38.7695 2.24609V5.95703H11.2305V2.24609ZM38.7695 7.32422V42.6758H11.2305V7.32422H38.7695ZM38.7695 47.7539C38.7693 47.9869 38.6767 48.2104 38.5119 48.3752C38.3471 48.5399 38.1237 48.6326 37.8906 48.6328H12.1094C11.8763 48.6326 11.6529 48.5399 11.4881 48.3752C11.3233 48.2104 11.2307 47.9869 11.2305 47.7539V44.043H38.7695V47.7539Z" fill="#323232"/>
<path d="M22.1436 47.0215H27.8565C28.0378 47.0215 28.2116 46.9495 28.3398 46.8213C28.468 46.6931 28.5401 46.5192 28.5401 46.3379C28.5401 46.1566 28.468 45.9827 28.3398 45.8545C28.2116 45.7263 28.0378 45.6543 27.8565 45.6543H22.1436C21.9623 45.6543 21.7884 45.7263 21.6602 45.8545C21.532 45.9827 21.46 46.1566 21.46 46.3379C21.46 46.5192 21.532 46.6931 21.6602 46.8213C21.7884 46.9495 21.9623 47.0215 22.1436 47.0215Z" fill="#4682B4"/>
<path d="M35.7939 2.97852H34.1826C34.0013 2.97852 33.8274 3.05054 33.6992 3.17874C33.571 3.30693 33.499 3.48081 33.499 3.66211C33.499 3.84341 33.571 4.01728 33.6992 4.14548C33.8274 4.27368 34.0013 4.3457 34.1826 4.3457H35.7939C35.9752 4.3457 36.1491 4.27368 36.2773 4.14548C36.4055 4.01728 36.4775 3.84341 36.4775 3.66211C36.4775 3.48081 36.4055 3.30693 36.2773 3.17874C36.1491 3.05054 35.9752 2.97852 35.7939 2.97852Z" fill="#4682B4"/>
</g>
<defs>
<clipPath id="clip0">
<rect width="50" height="50" fill="white"/>
</clipPath>
</defs>
</svg>
